<?xml version="1.0" encoding="utf-8"?>
<!-- Generator: Adobe Illustrator 26.5.0, SVG Export Plug-In . SVG Version: 6.00 Build 0)  -->
<svg version="1.1" id="SVGDoc" xmlns:avocode="https://avocode.com/"
	 xmlns="http://www.w3.org/2000/svg" xmlns:xlink="http://www.w3.org/1999/xlink" x="0px" y="0px" viewBox="0 0 236 236"
	 style="enable-background:new 0 0 236 236;" xml:space="preserve">
<style type="text/css">
	.st0{fill:#FF8059;}
	.st1{fill:#488098;}
</style>
<g>
	<g>
		<path class="st0" d="M100.5,71.5c20.5,0,0,0,71.5,0c0,24.8,0,52.5,0,71.5c0,39.5-32,71.5-71.5,71.5C61,214.5,29,182.5,29,143
			C29,103.5,61,71.5,100.5,71.5z"/>
	</g>
	<g>
		<path class="st1" d="M164.5,143c-20.5,0,0,0-71.5,0c0-24.8,0-52.5,0-71.5C93,32,125,0,164.5,0C204,0,236,32,236,71.5
			C236,111,204,143,164.5,143L164.5,143z"/>
	</g>
</g>
</svg>
