<?xml version="1.0" encoding="utf-8"?>
<!-- Generator: Adobe Illustrator 26.5.0, SVG Export Plug-In . SVG Version: 6.00 Build 0)  -->
<svg version="1.1" id="SVGDoc" xmlns:avocode="https://avocode.com/"
	 xmlns="http://www.w3.org/2000/svg" xmlns:xlink="http://www.w3.org/1999/xlink" x="0px" y="0px" viewBox="0 0 236 236"
	 style="enable-background:new 0 0 236 236;" xml:space="preserve">
<style type="text/css">
	.st0{fill:#488098;}
	.st1{fill:#FF8059;}
</style>
<g>
	<g>
		<path class="st0" d="M75.2,123.8c-7.7,19,0,0-26.7,66.3c23,9.3,48.7,19.6,66.3,26.7c36.6,14.7,78.3-3,93-39.6
			c14.7-36.6-3-78.3-39.6-93C131.6,69.4,89.9,87.2,75.2,123.8L75.2,123.8z"/>
	</g>
	<g>
		<path class="st1" d="M161.1,110l12.4-69.2c0,0,0-0.1-0.1-0.1l-69.2-12.4C64.4,21.2,25.8,47.9,19.8,88c-5.6,37.4,19,72.8,56,80.5
			C115.5,176.8,153.9,149.8,161.1,110z"/>
	</g>
</g>
</svg>
