<?xml version="1.0" encoding="utf-8"?>
<!-- Generator: Adobe Illustrator 24.1.0, SVG Export Plug-In . SVG Version: 6.00 Build 0)  -->
<!DOCTYPE svg PUBLIC "-//W3C//DTD SVG 1.1//EN" "http://www.w3.org/Graphics/SVG/1.1/DTD/svg11.dtd" [
	<!ENTITY ns_extend "http://ns.adobe.com/Extensibility/1.0/">
	<!ENTITY ns_ai "http://ns.adobe.com/AdobeIllustrator/10.0/">
	<!ENTITY ns_graphs "http://ns.adobe.com/Graphs/1.0/">
	<!ENTITY ns_vars "http://ns.adobe.com/Variables/1.0/">
	<!ENTITY ns_imrep "http://ns.adobe.com/ImageReplacement/1.0/">
	<!ENTITY ns_sfw "http://ns.adobe.com/SaveForWeb/1.0/">
	<!ENTITY ns_custom "http://ns.adobe.com/GenericCustomNamespace/1.0/">
	<!ENTITY ns_adobe_xpath "http://ns.adobe.com/XPath/1.0/">
]>
<svg version="1.1" id="Layer_1" xmlns:x="&ns_extend;" xmlns:i="&ns_ai;" xmlns:graph="&ns_graphs;"
	 xmlns="http://www.w3.org/2000/svg" xmlns:xlink="http://www.w3.org/1999/xlink" x="0px" y="0px" width="895px" height="267px"
	 viewBox="0 0 895 267" style="enable-background:new 0 0 895 267;" xml:space="preserve">
<style type="text/css">
	.st0{fill:none;stroke:#000000;stroke-width:8;}
</style>
<metadata>
	<sfw  xmlns="&ns_sfw;">
		<slices></slices>
		<sliceSourceBounds  bottomLeftOrigin="true" height="265.9" width="893.7" x="0.5" y="1"></sliceSourceBounds>
	</sfw>
</metadata>
<path class="st0" d="M52.3,260V44l0.7-0.7L100.1,260h53.3l47.9-216l0.7-0.7V260h50.8V1.2h-78.1l-47.2,204.1L81.1,1.2H1.5V260H52.3z
	 M380.6,265c13,0,25.3-2.4,37.1-7.2c11.3-4.8,21-11.8,29.2-20.9c7.9-8.6,13.9-19.7,18-33.1H413c-1.7,5.8-5.6,10.7-11.9,14.8
	s-13.1,6.1-20.5,6.1c-14.4,0-25.6-4.1-33.5-12.2c-8.2-7.9-12.2-19.6-12.2-34.9H467v-9c0-19-2.9-36.5-8.6-52.6s-15.2-28.9-28.4-38.5
	S399.1,63.1,377,63.1c-20.9,0-38.4,4.6-52.6,13.7c-13.9,8.9-24,20.9-30.2,36s-9.4,31-9.4,47.5C284.8,230.1,316.7,265,380.6,265
	L380.6,265z M415.1,145.5H337c3.6-27.4,16.7-41,39.2-41c10.6,0,19.4,3.6,26.6,10.8C410.1,123.2,414.2,133.3,415.1,145.5z M550.9,260
	V150.2c0-12,3.1-22.4,9.4-31.3c6.2-8.6,16.2-13,29.9-13c14.4,0,23.5,3.4,27.4,10.1c3.8,6.7,5.8,16.1,5.8,28.1V260H674V127.2
	c0-13.4-2.6-25-7.9-34.6c-5.3-9.4-13-16.7-23-22c-10.3-5-22.3-7.6-36-7.6c-25.9,0-45.4,11-58.3,33.1V68.1h-48.6V260H550.9z
	 M786.3,265c13,0,24.2-2.6,33.8-7.9c9.6-5.3,18-13.2,25.2-23.8V260h47.9V68.1h-50V179c0,10.6-1.9,19-5.8,25.2
	c-3.8,6.7-8.9,11.4-15.1,14c-6.5,2.9-12.6,4.3-18.4,4.3c-21.6,0-32.4-11.9-32.4-35.6V68.1h-50.8v126.4c0,23,6,40.6,18,52.6
	S766.6,265,786.3,265L786.3,265z"/>
<polygon class="st0" points="789,46.9 823,6.9 823,46.9 "/>
</svg>
